<svg width="380" height="59" viewBox="0 0 380 59" fill="none" xmlns="http://www.w3.org/2000/svg">
<path d="M72.475 43.705C72.985 47.7 75.79 49.655 80.295 49.655C85.055 49.655 88.03 47.615 88.03 45.065C88.03 36.82 62.275 44.555 62.275 27.045C62.275 19.14 70.01 13.19 80.295 13.19C90.75 13.19 97.72 18.205 98.995 25.855L87.605 28.235C87.01 24.24 84.375 22.285 80.295 22.285C76.64 22.285 73.835 23.985 73.835 26.535C73.835 34.865 99.59 27.13 99.59 44.895C99.59 52.8 91.005 58.75 80.295 58.75C69.415 58.75 62.275 53.735 61 46.085L72.475 43.705Z" fill="#00C978"/>
<path d="M99.85 35.97C99.85 23.05 109.795 13.19 122.885 13.19C137.59 13.19 147.875 25.43 145.495 40.05H111.665C113.195 45.235 117.615 48.89 123.65 48.89C128.41 48.89 132.405 46.595 134.53 42.77L143.965 47.02C140.14 53.905 132.83 58.75 123.31 58.75C109.965 58.75 99.85 48.89 99.85 35.97ZM111.835 31.295H134.02C132.49 26.365 128.325 23.05 122.885 23.05C117.7 23.05 113.45 26.365 111.835 31.295Z" fill="#00C978"/>
<path d="M284.85 35.97C284.85 23.05 294.795 13.19 307.885 13.19C322.59 13.19 332.875 25.43 330.495 40.05H296.665C298.195 45.235 302.615 48.89 308.65 48.89C313.41 48.89 317.405 46.595 319.53 42.77L328.965 47.02C325.14 53.905 317.83 58.75 308.31 58.75C294.965 58.75 284.85 48.89 284.85 35.97ZM296.835 31.295H319.02C317.49 26.365 313.325 23.05 307.885 23.05C302.7 23.05 298.45 26.365 296.835 31.295Z" fill="#00C978"/>
<path d="M333 35.97C333 23.05 345.09 13 355.885 13C363.62 13 365.5 14.45 368 22L367.87 0H379.345V57.9H367.87L368 50.5C366.5 56 359.235 58 351.5 58C342.78 55.75 333 48.89 333 35.97ZM344.75 35.97C344.75 43.025 349.765 48.21 355.885 48.21C362.94 48.21 367.87 43.025 367.87 35.97C367.87 29 362.94 23.73 355.885 23.73C349.765 23.73 344.75 29 344.75 35.97Z" fill="#00C978"/>
<path d="M161.85 35.97C161.85 23.05 171.795 13.19 184.885 13.19C199.59 13.19 209.875 25.43 207.495 40.05H173.665C175.195 45.235 179.615 48.89 185.65 48.89C190.41 48.89 194.405 46.595 196.53 42.77L205.965 47.02C202.14 53.905 194.83 58.75 185.31 58.75C171.965 58.75 161.85 48.89 161.85 35.97ZM173.835 31.295H196.02C194.49 26.365 190.325 23.05 184.885 23.05C179.7 23.05 175.45 26.365 173.835 31.295Z" fill="#00C978"/>
<path d="M209.85 35.97C209.85 23.05 219.965 13.19 233.31 13.19C242.66 13.19 250.65 18.205 254.39 27.13L243.85 30.785C241.895 26.28 237.985 23.73 233.31 23.73C226.765 23.73 221.75 29 221.75 35.97C221.75 43.025 226.765 48.21 233.31 48.21C237.985 48.21 241.895 45.66 243.85 41.155L254.39 44.81C250.65 53.735 242.66 58.75 233.31 58.75C219.965 58.75 209.85 48.89 209.85 35.97Z" fill="#00C978"/>
<path d="M254.15 24.155V14.04H262.99V1.12L274.465 0V14.04H285.855V24.155H274.465V41.58C274.465 45.83 276.42 47.785 280.67 47.785H285.855V57.9H280.67C268.6 57.9 262.99 52.29 262.99 40.9V24.155H254.15Z" fill="#00C978"/>
<path d="M148.55 57.9V0H160.025V57.9H148.55Z" fill="#00C978"/>
<path d="M333 35.78C333 22.86 343.115 13 356.46 13C365.81 13 373.8 18.015 377.54 26.94L367 30.595C365.045 26.09 361.135 23.54 356.46 23.54C349.915 23.54 344.9 28.81 344.9 35.78C344.9 42.835 349.915 48.02 356.46 48.02C361.135 48.02 365.045 45.47 367 40.965L377.54 44.62C373.8 53.545 365.81 58.56 356.46 58.56C343.115 58.56 333 48.7 333 35.78Z" fill="#00C978"/>
<g clip-path="url(#clip0_569_797)">
<path fill-rule="evenodd" clip-rule="evenodd" d="M23.5066 53.6093L23.5068 56.5657C23.5068 57.7243 22.547 58.6797 21.3333 58.7148C12.2988 58.9764 3.67096 58.3478 0.532323 45.7031C-2.10845 35.0642 4.59986 14.4375 31.4154 20.1875V13C40.078 13.1198 57.4032 18.0312 57.4032 36.7188H43.0915L46.3958 42.4992C46.9433 43.457 46.2167 44.625 45.0732 44.625H38.2692C37.754 44.625 37.2746 44.3739 36.9981 43.9592L32.1694 36.7188H23.8837L26.6818 42.5927C27.1352 43.5444 26.406 44.625 25.3104 44.625H19.0613C18.5462 44.625 18.0669 44.3739 17.7903 43.9592L13.7941 37.9671C13.2546 37.158 12.4136 36.3991 11.4354 36.6191C9.89774 36.965 8.45263 38.8572 9.57203 44.625C10.8655 51.2902 16.4865 51.5435 21.248 51.4819C22.4959 51.4658 23.5066 52.4185 23.5066 53.6093ZM43.8442 29.8906C45.7163 29.8906 47.2338 28.4426 47.2338 26.6562C47.2338 24.8699 45.7163 23.4219 43.8442 23.4219C41.9722 23.4219 40.4546 24.8699 40.4546 26.6562C40.4546 28.4426 41.9722 29.8906 43.8442 29.8906Z" fill="#00C978"/>
</g>
<defs>
<clipPath id="clip0_569_797">
<rect width="58" height="46" fill="white" transform="translate(0 13)"/>
</clipPath>
</defs>
</svg>
