<svg width="58" height="46" viewBox="0 0 58 46" fill="none" xmlns="http://www.w3.org/2000/svg">
<g clip-path="url(#clip0_569_799)">
<path fill-rule="evenodd" clip-rule="evenodd" d="M23.5066 40.6093L23.5068 43.5657C23.5068 44.7243 22.547 45.6797 21.3333 45.7148C12.2988 45.9764 3.67096 45.3478 0.532323 32.7031C-2.10845 22.0642 4.59986 1.4375 31.4154 7.1875V0C40.078 0.119792 57.4032 5.03125 57.4032 23.7188H43.0915L46.3958 29.4992C46.9433 30.457 46.2167 31.625 45.0732 31.625H38.2692C37.754 31.625 37.2746 31.3739 36.9981 30.9592L32.1694 23.7188H23.8837L26.6818 29.5927C27.1352 30.5444 26.406 31.625 25.3104 31.625H19.0613C18.5462 31.625 18.0669 31.3739 17.7903 30.9592L13.7941 24.9671C13.2546 24.158 12.4136 23.3991 11.4354 23.6191C9.89774 23.965 8.45263 25.8572 9.57203 31.625C10.8655 38.2902 16.4865 38.5435 21.248 38.4819C22.4959 38.4658 23.5066 39.4185 23.5066 40.6093ZM43.8442 16.8906C45.7163 16.8906 47.2338 15.4426 47.2338 13.6562C47.2338 11.8699 45.7163 10.4219 43.8442 10.4219C41.9722 10.4219 40.4546 11.8699 40.4546 13.6562C40.4546 15.4426 41.9722 16.8906 43.8442 16.8906Z" fill="#00C978"/>
</g>
<defs>
<clipPath id="clip0_569_799">
<rect width="58" height="46" fill="white"/>
</clipPath>
</defs>
</svg>
