<svg width="28" height="59" viewBox="0 0 28 59" fill="none" xmlns="http://www.w3.org/2000/svg">
<path d="M26.8726 5.10618C27.9816 7.83387 28.0785 14.3577 27.9622 19.3861C27.8895 22.5286 24.7187 24.414 22.0704 22.8794C17.7108 20.3531 12.1347 16.77 10.4814 14.1231C8.0777 9.43429 9.79846 3.61471 14.3248 1.12475C18.8511 -1.36521 24.469 0.417336 26.8726 5.10618Z" fill="#F5F5F5"/>
<path d="M26.8726 53.8938C27.9816 51.1661 28.0785 44.6423 27.9622 39.6139C27.8895 36.4714 24.7187 34.586 22.0704 36.1206C17.7108 38.6469 12.1347 42.2299 10.4814 44.8769C8.0777 49.5657 9.79846 55.3853 14.3248 57.8752C18.8511 60.3652 24.469 58.5827 26.8726 53.8938Z" fill="#F5F5F5"/>
<path d="M9.26899 20.1998C12.115 20.4611 17.7258 23.4256 21.961 25.8854C24.6079 27.4227 24.7323 31.2078 22.1837 32.914C17.9883 35.7227 12.3219 39.1505 9.2901 39.4253C4.16515 39.4313 0.00583571 35.1325 6.13436e-06 29.8235C-0.00582344 24.5145 4.14404 20.2059 9.26899 20.1998Z" fill="#F5F5F5"/>
</svg>
