<svg width="100" height="27" viewBox="0 0 100 27" fill="none" xmlns="http://www.w3.org/2000/svg">
<path d="M12.2284 2.33673C12.7331 3.58499 12.7771 6.57048 12.7242 8.87161C12.6911 10.3097 11.2482 11.1725 10.0431 10.4702C8.05931 9.31413 5.52189 7.67443 4.76955 6.46313C3.67576 4.31739 4.45879 1.65419 6.5185 0.514717C8.5782 -0.624758 11.1346 0.190984 12.2284 2.33673Z" fill="white"/>
<path d="M12.2284 24.6633C12.7331 23.415 12.7771 20.4295 12.7242 18.1284C12.6911 16.6903 11.2482 15.8275 10.0431 16.5298C8.05931 17.6859 5.52189 19.3256 4.76955 20.5369C3.67576 22.6826 4.45879 25.3458 6.5185 26.4853C8.5782 27.6248 11.1346 26.809 12.2284 24.6633Z" fill="white"/>
<path d="M4.21786 9.24398C5.51293 9.36356 8.06612 10.7202 9.99338 11.8459C11.1978 12.5494 11.2545 14.2815 10.0947 15.0623C8.18557 16.3477 5.6071 17.9163 4.22747 18.0421C1.89536 18.0448 0.00265554 16.0776 2.79144e-06 13.648C-0.00264996 11.2185 1.88575 9.24675 4.21786 9.24398Z" fill="white"/>
<path d="M31.7865 16.4133C31.7865 13.1961 34.5494 12.16 37.1245 11.8874L39.3777 11.6693C40.2361 11.6147 40.6652 11.2876 40.6652 10.5514C40.6652 9.51536 39.6996 8.86101 38.412 8.86101C36.9635 8.86101 36.0247 9.65168 35.7833 10.9877L32.1888 10.1697C32.5644 7.74316 34.8444 5.83463 38.3852 5.83463C41.7382 5.83463 44.2865 7.57957 44.2865 11.2876V20.1758H40.6652V16.686C39.8873 19.2216 38.3047 20.4485 35.8906 20.4485C33.7178 20.4485 31.7865 18.8944 31.7865 16.4133ZM35.4077 16.1134C35.4077 16.9586 36.0783 17.5312 37.1781 17.5312C39.0826 17.5312 40.6652 15.9771 40.6652 14.2867V13.9322C40.4238 14.1503 40.0483 14.2594 39.4313 14.3412L37.0976 14.6138C36.0515 14.7502 35.4077 15.2955 35.4077 16.1134Z" fill="white"/>
<path d="M45.1985 20.1758V6.10728H48.8197V9.70621C49.544 7.33419 51.3144 5.83463 53.6212 5.83463C56.706 5.83463 58.7178 8.28845 58.7178 11.642V20.1758H55.0966V12.2964C55.0966 10.4696 53.809 9.18818 52.0923 9.18818C50.1609 9.18818 48.8197 10.4696 48.8197 12.2964V20.1758H45.1985Z" fill="white"/>
<path d="M62.7682 15.6226C62.9292 16.9041 63.8144 17.5312 65.236 17.5312C66.7382 17.5312 67.677 16.8768 67.677 16.0589C67.677 13.4142 59.5494 15.8953 59.5494 10.2788C59.5494 7.74316 61.9903 5.83463 65.236 5.83463C68.5354 5.83463 70.735 7.44325 71.1373 9.89707L67.5429 10.6605C67.3551 9.37904 66.5236 8.75195 65.236 8.75195C64.0826 8.75195 63.1974 9.29724 63.1974 10.1152C63.1974 12.7871 71.3251 10.306 71.3251 16.0043C71.3251 18.54 68.6159 20.4485 65.236 20.4485C61.8026 20.4485 59.5494 18.8399 59.147 16.3861L62.7682 15.6226Z" fill="white"/>
<path d="M71.8884 6.10728H75.5097V14.2321C75.5097 15.9498 76.6899 17.0677 78.3798 17.0677C80.0429 17.0677 81.25 15.9498 81.25 14.2321V6.10728H84.8712V14.2321C84.8712 17.9401 82.1352 20.4485 78.3798 20.4485C74.5976 20.4485 71.8884 17.9401 71.8884 14.2321V6.10728Z" fill="white"/>
<path d="M85.7028 20.1758V1.79401e-08H89.324V20.1758H85.7028Z" fill="white"/>
<path d="M89.9946 9.35177V6.10728H92.7843V1.96305L96.4056 0.817939V6.10728H100V9.35177H96.4056V14.941C96.4056 16.3043 97.0225 16.9313 98.3637 16.9313H100V20.1758H98.3637C94.5547 20.1758 92.7843 18.3764 92.7843 14.7229V9.35177H89.9946Z" fill="white"/>
<path d="M16.7981 13.297C16.7981 9.08367 20.0434 5.86826 24.3249 5.86826C27.3247 5.86826 29.8882 7.50368 31.0882 10.4142L27.7065 11.6061C27.0793 10.137 25.8248 9.30542 24.3249 9.30542C22.2251 9.30542 20.6161 11.024 20.6161 13.297C20.6161 15.5976 22.2251 17.2885 24.3249 17.2885C25.8248 17.2885 27.0793 16.4569 27.7065 14.9878L31.0882 16.1797C29.8882 19.0902 27.3247 20.7257 24.3249 20.7257C20.0434 20.7257 16.7981 17.5103 16.7981 13.297Z" fill="white"/>
</svg>
