<svg width="104" height="217" viewBox="0 0 104 217" fill="none" xmlns="http://www.w3.org/2000/svg">
<path d="M99.8125 18.7804C103.932 28.8127 104.292 52.8072 103.86 71.3015C103.59 82.8595 91.8122 89.7939 81.9758 84.1496C65.7829 74.858 45.0717 61.6797 38.9307 51.9444C30.0029 34.699 36.3943 13.2948 53.2063 4.1368C70.0184 -5.0212 90.8847 1.53495 99.8125 18.7804Z" fill="#1D1D1D"/>
<path d="M99.8125 198.22C103.932 188.187 104.292 164.193 103.86 145.699C103.59 134.14 91.8122 127.206 81.9758 132.85C65.7829 142.142 45.0717 155.32 38.9307 165.056C30.0029 182.301 36.3943 203.705 53.2063 212.863C70.0184 222.021 90.8847 215.465 99.8125 198.22Z" fill="#1D1D1D"/>
<path d="M34.4277 74.2942C44.9985 75.2553 65.8386 86.1587 81.5696 95.2058C91.4007 100.86 91.8629 114.781 82.3968 121.057C66.8136 131.387 45.7672 143.994 34.5061 145.005C15.4706 145.027 0.0216755 129.216 2.27848e-05 109.69C-0.0216299 90.1636 15.3922 74.3164 34.4277 74.2942Z" fill="#1D1D1D"/>
</svg>
