<svg width="13" height="9" viewBox="0 0 13 9" fill="none" xmlns="http://www.w3.org/2000/svg">
<path opacity="0.5" d="M4.21219 0C3.77185 0 2.4443 0.503723 2.20613 0.604391C1.96796 0.70506 1.70359 1.01931 1.40363 1.53796C1.10325 2.05661 0.862213 2.66292 0.470577 3.55477C0.0793514 4.44662 -0.0119074 6.16602 0.00118801 6.69079C0.0142834 7.21557 0.0785329 7.62551 0.653504 7.93594C1.22807 8.24598 1.73633 8.57057 2.2712 8.76578C2.80647 8.96099 3.17151 9.10147 3.4195 8.90626C3.6675 8.71105 3.83078 8.36923 3.83078 8.36923C3.83078 8.36923 4.06568 8.06417 3.62207 7.8812C3.17847 7.69786 2.95666 7.56963 2.9759 7.38054C2.99554 7.19145 3.02787 7.08772 3.13877 7.11222C3.24967 7.13672 3.51117 7.57575 4.51584 7.77709C5.5205 7.97843 6.4998 7.94819 6.4998 7.94819C6.4998 7.94819 7.4795 7.97881 8.48416 7.77709C9.48883 7.57575 9.74992 7.13672 9.86082 7.11222C9.97172 7.08772 10.0041 7.19145 10.0237 7.38016C10.0433 7.56963 9.82153 7.69786 9.37793 7.8812C8.93432 8.06417 9.16922 8.36923 9.16922 8.36923C9.16922 8.36923 9.3325 8.71066 9.5805 8.90626C9.82808 9.10147 10.1935 8.96099 10.7284 8.76578C11.2633 8.57057 11.7719 8.24636 12.3465 7.93594C12.9215 7.62551 12.9857 7.21557 12.9988 6.69079C13.0119 6.1664 12.9206 4.44662 12.529 3.55477C12.1378 2.66292 11.8963 2.05661 11.596 1.53796C11.2964 1.01931 11.0316 0.70506 10.7939 0.604009C10.5557 0.503723 9.22774 0 8.7874 0C8.34707 0 8.21693 0.287076 8.21693 0.287076L8.06347 0.604391C8.06347 0.604391 7.03221 0.421045 6.50675 0.420663C5.9813 0.420663 4.93653 0.604391 4.93653 0.604391L4.78307 0.286694C4.78307 0.286694 4.65293 0 4.21219 0ZM4.26007 3.80778H4.27644C4.91852 3.80778 5.43866 4.33332 5.43866 4.98135C5.43866 5.62976 4.91852 6.15492 4.27644 6.15492C3.63435 6.15492 3.11422 5.62976 3.11422 4.98135C3.11381 4.33945 3.62453 3.81658 4.26007 3.80778ZM8.72356 3.80778H8.73993C9.37547 3.81658 9.88578 4.33983 9.88578 4.98135C9.88578 5.62976 9.36565 6.15492 8.72356 6.15492C8.08107 6.15492 7.56134 5.62976 7.56134 4.98135C7.56134 4.33332 8.08107 3.80778 8.72356 3.80778Z" fill="black"/>
</svg>
