<svg width="10" height="10" viewBox="0 0 10 10" fill="none" xmlns="http://www.w3.org/2000/svg">
<path opacity="0.5" d="M8.125 0C8.64149 0 9.08312 0.183377 9.44987 0.55013C9.81662 0.916884 10 1.35851 10 1.875V8.125C10 8.64149 9.81662 9.08312 9.44987 9.44987C9.08312 9.81662 8.64149 10 8.125 10H6.90104V6.1263H8.19661L8.39193 4.61589H6.90104V3.65234C6.90104 3.40929 6.95204 3.227 7.05404 3.10547C7.15603 2.98394 7.3546 2.92318 7.64974 2.92318L8.44401 2.91667V1.56901C8.17057 1.52995 7.78429 1.51042 7.28516 1.51042C6.69488 1.51042 6.22287 1.68403 5.86914 2.03125C5.51541 2.37847 5.33854 2.86892 5.33854 3.5026V4.61589H4.03646V6.1263H5.33854V10H1.875C1.35851 10 0.916884 9.81662 0.55013 9.44987C0.183377 9.08312 0 8.64149 0 8.125V1.875C0 1.35851 0.183377 0.916884 0.55013 0.55013C0.916884 0.183377 1.35851 0 1.875 0H8.125Z" fill="black"/>
</svg>
