<svg width="10" height="10" viewBox="0 0 10 10" fill="none" xmlns="http://www.w3.org/2000/svg">
<path opacity="0.5" d="M7.67 1.73C7.55133 1.73 7.43533 1.76519 7.33666 1.83112C7.23799 1.89705 7.16108 1.99075 7.11567 2.10039C7.07026 2.21003 7.05838 2.33067 7.08153 2.44705C7.10468 2.56344 7.16182 2.67035 7.24574 2.75426C7.32965 2.83818 7.43656 2.89532 7.55295 2.91847C7.66933 2.94162 7.78997 2.92974 7.89961 2.88433C8.00925 2.83892 8.10295 2.76201 8.16888 2.66334C8.23481 2.56467 8.27 2.44867 8.27 2.33C8.27 2.17087 8.20679 2.01826 8.09426 1.90574C7.98174 1.79321 7.82913 1.73 7.67 1.73ZM9.97 2.94C9.96028 2.52515 9.88258 2.1147 9.74 1.725C9.61287 1.39157 9.41499 1.08964 9.16 0.84C8.91241 0.583713 8.60978 0.387088 8.275 0.265C7.88633 0.11808 7.47542 0.038605 7.06 0.03C6.53 -2.79397e-08 6.36 0 5 0C3.64 0 3.47 -2.79397e-08 2.94 0.03C2.52458 0.038605 2.11367 0.11808 1.725 0.265C1.39084 0.388324 1.08847 0.58478 0.84 0.84C0.583713 1.08759 0.387088 1.39022 0.265 1.725C0.11808 2.11367 0.038605 2.52458 0.03 2.94C-2.79397e-08 3.47 0 3.64 0 5C0 6.36 -2.79397e-08 6.53 0.03 7.06C0.038605 7.47542 0.11808 7.88633 0.265 8.275C0.387088 8.60978 0.583713 8.91241 0.84 9.16C1.08847 9.41522 1.39084 9.61168 1.725 9.735C2.11367 9.88192 2.52458 9.9614 2.94 9.97C3.47 10 3.64 10 5 10C6.36 10 6.53 10 7.06 9.97C7.47542 9.9614 7.88633 9.88192 8.275 9.735C8.60978 9.61291 8.91241 9.41629 9.16 9.16C9.41612 8.91129 9.61417 8.6091 9.74 8.275C9.88258 7.8853 9.96028 7.47485 9.97 7.06C9.97 6.53 10 6.36 10 5C10 3.64 10 3.47 9.97 2.94ZM9.07 7C9.06636 7.31739 9.00888 7.63185 8.9 7.93C8.82017 8.1476 8.69194 8.34421 8.525 8.505C8.36282 8.67025 8.16661 8.79822 7.95 8.88C7.65185 8.98888 7.33739 9.04636 7.02 9.05C6.52 9.075 6.335 9.08 5.02 9.08C3.705 9.08 3.52 9.08 3.02 9.05C2.69045 9.05617 2.3623 9.00543 2.05 8.9C1.84289 8.81404 1.65568 8.68639 1.5 8.525C1.33404 8.36437 1.20742 8.1676 1.13 7.95C1.00793 7.64758 0.940222 7.32597 0.93 7C0.93 6.5 0.9 6.315 0.9 5C0.9 3.685 0.9 3.5 0.93 3C0.932241 2.67553 0.991475 2.35397 1.105 2.05C1.19302 1.83896 1.32813 1.65083 1.5 1.5C1.65191 1.32808 1.83964 1.19155 2.05 1.1C2.35478 0.990022 2.676 0.93254 3 0.93C3.5 0.93 3.685 0.9 5 0.9C6.315 0.9 6.5 0.9 7 0.93C7.31739 0.93364 7.63185 0.991123 7.93 1.1C8.15722 1.18433 8.36115 1.32142 8.525 1.5C8.68885 1.65359 8.81688 1.84137 8.9 2.05C9.01113 2.35447 9.06864 2.67589 9.07 3C9.095 3.5 9.1 3.685 9.1 5C9.1 6.315 9.095 6.5 9.07 7ZM5 2.435C4.49291 2.43599 3.99748 2.58726 3.57633 2.86971C3.15517 3.15216 2.82719 3.5531 2.63382 4.02188C2.44044 4.49066 2.39036 5.00623 2.4899 5.50346C2.58943 6.0007 2.83412 6.45727 3.19304 6.81549C3.55196 7.17371 4.00901 7.41751 4.50643 7.51607C5.00385 7.61464 5.51933 7.56355 5.98773 7.36927C6.45614 7.17498 6.85644 6.84622 7.13806 6.42452C7.41969 6.00281 7.57 5.5071 7.57 5C7.57066 4.66255 7.5046 4.3283 7.37562 4.01648C7.24664 3.70465 7.05728 3.4214 6.81843 3.18303C6.57959 2.94465 6.29597 2.75584 5.9839 2.62746C5.67182 2.49909 5.33745 2.43368 5 2.435ZM5 6.665C4.67069 6.665 4.34878 6.56735 4.07498 6.3844C3.80117 6.20144 3.58776 5.94141 3.46174 5.63717C3.33572 5.33293 3.30275 4.99815 3.36699 4.67517C3.43124 4.3522 3.58981 4.05552 3.82267 3.82267C4.05552 3.58981 4.3522 3.43124 4.67517 3.36699C4.99815 3.30275 5.33293 3.33572 5.63717 3.46174C5.94141 3.58776 6.20144 3.80117 6.3844 4.07498C6.56735 4.34878 6.665 4.67069 6.665 5C6.665 5.21865 6.62193 5.43516 6.53826 5.63717C6.45459 5.83918 6.33194 6.02272 6.17733 6.17733C6.02272 6.33194 5.83918 6.45459 5.63717 6.53826C5.43516 6.62193 5.21865 6.665 5 6.665Z" fill="black"/>
</svg>
