<svg width="50" height="50" viewBox="0 0 50 50" fill="none" xmlns="http://www.w3.org/2000/svg">
<path d="M31.8204 7.82829C32.5954 9.68762 32.663 14.1346 32.5818 17.5622C32.531 19.7043 30.3153 20.9895 28.4648 19.9434C25.4185 18.2214 21.5222 15.779 20.3669 13.9747C18.6873 10.7785 19.8897 6.81163 23.0525 5.11434C26.2153 3.41706 30.1408 4.63213 31.8204 7.82829Z" fill="white"/>
<path d="M31.8204 41.0844C32.5954 39.2251 32.663 34.7781 32.5818 31.3505C32.531 29.2084 30.3153 27.9232 28.4648 28.9693C25.4185 30.6913 21.5222 33.1337 20.3669 34.938C18.6873 38.1342 19.8897 42.1011 23.0525 43.7984C26.2153 45.4956 30.1408 44.2806 31.8204 41.0844Z" fill="white"/>
<path d="M19.5197 18.1169C21.5084 18.295 25.429 20.3158 28.3884 21.9925C30.2379 23.0404 30.3249 25.6205 28.544 26.7835C25.6124 28.6981 21.653 31.0346 19.5345 31.2219C15.9534 31.2261 13.047 28.2957 13.043 24.6769C13.0389 21.058 15.9386 18.121 19.5197 18.1169Z" fill="white"/>
</svg>
