<svg width="50" height="50" viewBox="0 0 50 50" fill="none" xmlns="http://www.w3.org/2000/svg">
<path d="M32.1947 7.54836C32.9869 9.44387 33.0561 13.9774 32.973 17.4717C32.9211 19.6555 30.6562 20.9657 28.7646 19.8992C25.6506 18.1437 21.6676 15.6538 20.4867 13.8144C18.7698 10.556 19.9989 6.51192 23.232 4.78161C26.4651 3.05129 30.4778 4.29001 32.1947 7.54836Z" fill="#00C978"/>
<path d="M32.1947 41.4516C32.9869 39.5561 33.0561 35.0226 32.973 31.5283C32.9211 29.3445 30.6562 28.0343 28.7646 29.1008C25.6506 30.8563 21.6676 33.3462 20.4867 35.1856C18.7698 38.444 19.9989 42.4881 23.232 44.2184C26.4651 45.9487 30.4778 44.71 32.1947 41.4516Z" fill="#19A873"/>
<path d="M19.6207 18.0372C21.6536 18.2187 25.6613 20.2788 28.6865 21.9882C30.577 23.0564 30.6659 25.6868 28.8455 26.8724C25.8488 28.8243 21.8014 31.2063 19.6358 31.3972C15.9751 31.4014 13.0042 28.4141 13 24.7248C12.9958 21.0355 15.96 18.0414 19.6207 18.0372Z" fill="#19A873"/>
</svg>
