<svg width="22" height="22" viewBox="0 0 22 22" fill="none" xmlns="http://www.w3.org/2000/svg">
<circle cx="11" cy="11" r="11" fill="white"/>
<circle cx="11" cy="11" r="9" fill="#19A873"/>
<path d="M12.7987 5.97364C12.9967 6.49375 13.014 7.7377 12.9932 8.6965C12.9803 9.29571 12.414 9.65521 11.9411 9.3626C11.1626 8.88089 10.1669 8.19768 9.87167 7.69297C9.44245 6.79891 9.74972 5.68925 10.558 5.21447C11.3663 4.73968 12.3695 5.07958 12.7987 5.97364Z" fill="white"/>
<path d="M12.7987 15.2764C12.9967 14.7563 13.014 13.5123 12.9932 12.5535C12.9803 11.9543 12.414 11.5948 11.9411 11.8874C11.1626 12.3691 10.1669 13.0523 9.87167 13.557C9.44245 14.4511 9.74972 15.5608 10.558 16.0355C11.3663 16.5103 12.3695 16.1704 12.7987 15.2764Z" fill="white"/>
<path d="M9.65518 8.85166C10.1634 8.90148 11.1653 9.46675 11.9216 9.93578C12.3943 10.2289 12.4165 10.9506 11.9614 11.276C11.2122 11.8115 10.2003 12.4651 9.65895 12.5175C8.74378 12.5187 8.00104 11.699 8 10.6867C7.99896 9.67438 8.74001 8.85281 9.65518 8.85166Z" fill="white"/>
</svg>
