<svg width="33" height="43" viewBox="0 0 33 43" fill="none" xmlns="http://www.w3.org/2000/svg">
<path d="M0.77022 41.9366C0.149574 41.1189 -0.0132308 40.2132 0.000820458 39.2155C0.0374275 36.6162 0.0187599 33.7415 0.0689776 31.0834C10.9921 31.0236 21.8661 31.0222 32.7401 31.0217C32.8258 31.0217 32.9114 31.0351 32.9971 31.0422C32.9992 33.8888 33.0024 37.0099 32.9971 39.8565C32.995 40.9986 32.4652 41.8522 31.5661 42.5268C31.5661 42.5268 31.5518 42.5596 31.5144 42.5626C31.1804 42.7012 30.8838 42.8369 30.5872 42.9725C21.3724 42.9777 12.1576 42.9846 2.94276 42.985C2.0836 42.985 1.39312 42.5678 0.77022 41.9366Z" fill="#EB1D25"/>
<path d="M30.6347 42.9783C30.8838 42.8369 31.1804 42.7012 31.5138 42.5617C31.5168 43.2591 30.995 42.8932 30.6347 42.9783Z" fill="#EEEEEE"/>
<path d="M0.0202741 31.1028C0.0179664 21.6795 0.0149436 12.2561 0.0176242 2.83278C0.0176889 2.60572 0.081374 2.37868 0.116392 2.10637C0.494279 0.854392 1.4193 0.132935 2.60762 0.132721C10.8251 0.131241 19.0426 0.131788 27.2601 0.133041C27.4279 0.133066 27.5957 0.14944 27.8518 0.162783C27.7582 0.847324 27.6851 1.49007 27.5797 2.12708C27.4382 2.98236 27.2554 3.83042 27.1198 4.68659C26.9218 5.93629 27.6212 6.78876 28.8319 6.7708C30.189 6.75067 31.5457 6.70338 32.9511 6.66803C32.9987 14.7793 32.9979 22.8905 32.9472 31.0505C21.9383 31.1005 10.9793 31.1016 0.0202741 31.1028ZM16.4914 19.0706C17.3923 18.7714 18.3055 18.5066 19.1901 18.1625C19.9496 17.8671 20.4973 18.0621 21.0796 18.6253C21.5298 19.0607 22.1196 19.3773 22.6966 19.6224C23.0559 19.7751 23.5145 19.7602 23.9152 19.7087C24.883 19.5842 25.5926 18.8009 25.6141 17.9189C25.6347 17.0745 25.0316 16.2635 24.0557 16.1389C23.0946 16.0162 22.1052 16.0849 21.1316 16.1377C20.808 16.1553 20.5727 16.1176 20.3461 15.8922C19.7006 15.25 19.0565 14.6058 18.3957 13.9806C18.0846 13.6863 18.0565 13.3998 18.1896 12.987C18.6087 11.6862 19.0644 10.3872 19.0417 8.98342C19.03 8.25731 18.7812 7.62019 18.3208 7.08166C17.2363 5.81299 15.4803 6.11575 14.9059 7.69565C14.7216 8.20261 14.6298 8.76873 14.6097 9.31232C14.5523 10.8604 15.1516 12.1977 15.9924 13.4299C16.1797 13.7044 16.2459 13.9289 16.1092 14.2546C15.6219 15.4155 15.1772 16.5959 14.6789 17.7516C14.5795 17.9822 14.3449 18.1965 14.1216 18.3154C13.3417 18.7308 12.4998 19.0343 11.7563 19.5069C10.9579 20.0143 10.1703 20.5885 9.51246 21.2724C8.75293 22.062 8.91318 23.0839 9.74934 23.7913C10.8819 24.7495 12.248 24.6695 13.3365 23.5752C14.2849 22.6217 14.8845 21.4344 15.3452 20.1794C15.5541 19.6103 15.841 19.2278 16.4914 19.0706Z" fill="#EEEEEE"/>
<path d="M32.8679 5.78979C32.9305 5.96234 32.9649 6.11427 32.9995 6.30617C31.6077 6.38165 30.2161 6.42622 28.8241 6.44958C27.8476 6.46596 27.2787 5.82349 27.4271 4.83779C27.661 3.28304 27.9334 1.73451 28.2198 0C29.864 1.94553 31.4871 3.73678 32.8679 5.78979Z" fill="#EEEEEE"/>
<path d="M16.4533 19.0833C15.841 19.2278 15.5541 19.6103 15.3452 20.1794C14.8845 21.4344 14.2849 22.6217 13.3365 23.5752C12.248 24.6695 10.8819 24.7495 9.74934 23.7913C8.91318 23.0839 8.75293 22.062 9.51246 21.2724C10.1703 20.5885 10.9579 20.0143 11.7563 19.5069C12.4998 19.0343 13.3417 18.7308 14.1216 18.3154C14.3449 18.1965 14.5795 17.9822 14.6789 17.7516C15.1772 16.5959 15.6219 15.4155 16.1092 14.2546C16.2459 13.9289 16.1797 13.7044 15.9924 13.4299C15.1516 12.1977 14.5523 10.8604 14.6097 9.31232C14.6298 8.76873 14.7216 8.20261 14.9059 7.69565C15.4803 6.11575 17.2363 5.81299 18.3208 7.08166C18.7812 7.62019 19.03 8.25731 19.0417 8.98342C19.0644 10.3872 18.6087 11.6862 18.1896 12.987C18.0565 13.3998 18.0846 13.6863 18.3957 13.9806C19.0565 14.6058 19.7006 15.25 20.3461 15.8922C20.5727 16.1176 20.808 16.1553 21.1316 16.1377C22.1052 16.0849 23.0946 16.0162 24.0557 16.1389C25.0316 16.2635 25.6347 17.0745 25.6141 17.9189C25.5926 18.8009 24.883 19.5842 23.9152 19.7087C23.5145 19.7602 23.0559 19.7751 22.6966 19.6224C22.1196 19.3773 21.5298 19.0607 21.0796 18.6253C20.4973 18.0621 19.9496 17.8671 19.1901 18.1625C18.3055 18.5066 17.3923 18.7714 16.4533 19.0833ZM10.8918 22.6811C11.3567 22.9764 11.8157 22.9059 12.1491 22.5072C12.6738 21.8799 13.1337 21.1944 13.621 20.5335C13.5694 20.4843 13.5179 20.4351 13.4663 20.3858C12.5335 20.8472 11.6138 21.3322 10.8468 22.0796C10.6703 22.2515 10.5416 22.4394 10.8918 22.6811ZM17.8508 15.6733C17.7133 15.5451 17.5758 15.417 17.3951 15.2485C17.1225 15.9356 16.8678 16.5778 16.5736 17.3193C17.3609 17.0619 18.0334 16.842 18.6856 16.6288C18.4035 16.3045 18.1523 16.0158 17.8508 15.6733ZM17.478 9.68116C17.3922 9.18576 17.3915 8.65009 17.1962 8.20645C17.0066 7.77601 16.5505 7.82467 16.3493 8.21188C15.8951 9.08616 16.206 11.0896 16.9597 11.8722C17.1346 11.1492 17.3007 10.4627 17.478 9.68116ZM22.8542 18.0229C23.2652 18.1702 23.671 18.2801 24.0144 17.9436C24.0148 17.8652 24.0152 17.7868 24.0157 17.7084C23.489 17.6549 22.9624 17.6014 22.4357 17.5478C22.4198 17.6027 22.4038 17.6576 22.3879 17.7125C22.5185 17.8049 22.6491 17.8972 22.8542 18.0229ZM17.0285 6.83587C16.9145 6.81536 16.7876 6.75221 16.6896 6.78418C16.5367 6.83405 16.4034 6.94844 16.2618 7.03548C16.3499 7.1129 16.4381 7.19031 16.5262 7.26773C16.6335 7.02306 17.2007 7.52238 17.0285 6.83587Z" fill="#E7242B"/>
<path d="M10.8567 22.6604C10.5416 22.4394 10.6703 22.2515 10.8468 22.0796C11.6138 21.3322 12.5335 20.8472 13.4663 20.3858C13.5179 20.4351 13.5694 20.4843 13.621 20.5335C13.1337 21.1944 12.6738 21.8799 12.1491 22.5072C11.8157 22.9059 11.3567 22.9764 10.8567 22.6604Z" fill="#EEEEEE"/>
<path d="M17.8759 15.7002C18.1523 16.0158 18.4035 16.3045 18.6856 16.6288C18.0334 16.842 17.3609 17.0619 16.5736 17.3193C16.8678 16.5778 17.1225 15.9356 17.3951 15.2485C17.5758 15.417 17.7133 15.5451 17.8759 15.7002Z" fill="#EEEEEE"/>
<path d="M17.4724 9.72864C17.3007 10.4627 17.1346 11.1492 16.9597 11.8722C16.206 11.0896 15.8951 9.08616 16.3493 8.21188C16.5505 7.82467 17.0066 7.77601 17.1962 8.20645C17.3915 8.65009 17.3922 9.18576 17.4724 9.72864ZM17.1266 10.2181C17.356 9.61742 17.4339 9.00731 17.0689 8.4436C16.8147 8.05095 16.5427 8.08405 16.4421 8.54387C16.232 9.50369 16.3 10.4487 16.7897 11.3114C16.8412 11.3135 16.8928 11.3155 16.9443 11.3175C16.9946 10.9797 17.0449 10.6418 17.1266 10.2181Z" fill="#EEEEEE"/>
<path d="M22.8169 18.0062C22.6491 17.8972 22.5185 17.8049 22.3879 17.7125C22.4038 17.6576 22.4198 17.6027 22.4357 17.5478C22.9624 17.6014 23.489 17.6549 24.0157 17.7084C24.0152 17.7868 24.0148 17.8652 24.0144 17.9436C23.671 18.2801 23.2652 18.1702 22.8169 18.0062Z" fill="#EEEEEE"/>
<path d="M17.0524 6.86929C17.2007 7.52238 16.6335 7.02306 16.5262 7.26773C16.4381 7.19031 16.3499 7.1129 16.2618 7.03548C16.4034 6.94844 16.5367 6.83405 16.6896 6.78418C16.7876 6.75221 16.9145 6.81536 17.0524 6.86929Z" fill="#E6251A"/>
<path d="M17.1108 10.261C17.0449 10.6418 16.9946 10.9797 16.9443 11.3175C16.8928 11.3155 16.8412 11.3135 16.7897 11.3114C16.3 10.4487 16.232 9.50369 16.4421 8.54387C16.5427 8.08405 16.8147 8.05095 17.0689 8.4436C17.4339 9.00731 17.356 9.61743 17.1108 10.261Z" fill="#EEEEEE"/>
<path d="M9.19609 39.9885V34.0665H11.451C11.8845 34.0665 12.2538 34.1523 12.559 34.3238C12.8641 34.4935 13.0966 34.7296 13.2567 35.0323C13.4185 35.333 13.4994 35.68 13.4994 36.0732C13.4994 36.4665 13.4176 36.8135 13.2539 37.1142C13.0901 37.415 12.8529 37.6492 12.5422 37.8169C12.2334 37.9846 11.8594 38.0685 11.4203 38.0685H9.98309V37.0651H11.225C11.4575 37.0651 11.6492 37.0236 11.7999 36.9407C11.9524 36.8559 12.0659 36.7393 12.1403 36.5909C12.2166 36.4405 12.2548 36.268 12.2548 36.0732C12.2548 35.8766 12.2166 35.7051 12.1403 35.5585C12.0659 35.4101 11.9524 35.2954 11.7999 35.2144C11.6473 35.1315 11.4538 35.0901 11.2194 35.0901H10.4045V39.9885H9.19609Z" fill="white"/>
<path d="M16.3104 39.9885H14.2843V34.0665H16.3272C16.9021 34.0665 17.397 34.185 17.8119 34.4221C18.2268 34.6573 18.5458 34.9956 18.7691 35.4371C18.9942 35.8786 19.1068 36.4068 19.1068 37.0217C19.1068 37.6386 18.9942 38.1687 18.7691 38.6121C18.5458 39.0555 18.2249 39.3957 17.8063 39.6328C17.3895 39.8699 16.8909 39.9885 16.3104 39.9885ZM15.4927 38.9157H16.2602C16.6174 38.9157 16.9179 38.8502 17.1616 38.7191C17.4072 38.5861 17.5914 38.3808 17.7142 38.1032C17.8389 37.8236 17.9012 37.4632 17.9012 37.0217C17.9012 36.5841 17.8389 36.2265 17.7142 35.9489C17.5914 35.6713 17.4081 35.467 17.1644 35.3359C16.9207 35.2048 16.6202 35.1393 16.263 35.1393H15.4927V38.9157Z" fill="white"/>
<path d="M20.0019 39.9885V34.0665H23.7862V35.0988H21.2103V36.5099H23.535V37.5422H21.2103V39.9885H20.0019Z" fill="white"/>
</svg>
